<svg width="211" height="57" viewBox="0 0 211 57" fill="none" xmlns="http://www.w3.org/2000/svg">
<g id="Group 182">
<path id="Rectangle 35" d="M55.8178 56.0239L45.3699 41.9137L54.2264 29.8642L60.9117 38.9161C62.932 41.6517 62.9472 46.1232 60.9457 48.9027L55.8178 56.0239Z" fill="black"/>
<path id="Rectangle 36" d="M43.3567 39.0312L34.2401 26.8357L43.1843 14.914L52.2134 27.1878L43.3567 39.0312Z" fill="#4F59CC"/>
<path id="Rectangle 62" d="M32.3911 53.8007L23.2745 41.6052L32.1313 29.7626L41.2479 41.9573L32.3911 53.8007Z" fill="#4F59CC"/>
<path id="Rectangle 38" d="M8.71948 56.0059L3.61462 48.9278C1.61838 46.1599 1.64137 41.6891 3.66597 38.9419L23.5219 11.9994C28.4059 5.37236 36.269 5.4128 41.0846 12.0898V12.0898L8.71948 56.0059Z" fill="#101293" fill-opacity="0.21"/>
<g id="Assembly Industries">
<path d="M82.2388 28.6V25.3852H90.868V28.6H82.2388ZM87.9577 9.00677L82.0358 33.033H78.2119L84.1339 9.00677H87.9577ZM88.0254 9.00677L93.9135 33.033H90.0896L84.2015 9.00677H88.0254Z" fill="black"/>
<path d="M105.923 27.4832C105.923 26.6936 105.686 26.0056 105.212 25.419C104.738 24.8099 104.118 24.2346 103.351 23.6932C102.606 23.1518 101.805 22.6103 100.948 22.0689C100.091 21.5049 99.2788 20.8845 98.5118 20.2077C97.7673 19.5084 97.1469 18.6962 96.6506 17.7712C96.1768 16.8463 95.9399 15.7634 95.9399 14.5226H99.8654C99.8654 15.2897 100.102 15.9777 100.576 16.5869C101.072 17.196 101.693 17.7712 102.437 18.3127C103.204 18.8541 104.016 19.4068 104.874 19.9708C105.731 20.5123 106.532 21.1327 107.276 21.832C108.043 22.5088 108.664 23.3097 109.137 24.2346C109.611 25.137 109.848 26.2199 109.848 27.4832H105.923ZM95.9399 14.5565C95.9399 13.3382 96.2445 12.2779 96.8536 11.3755C97.4627 10.4506 98.2974 9.73996 99.3578 9.24365C100.441 8.72477 101.67 8.46533 103.046 8.46533V11.6801C102.054 11.6801 101.275 11.9395 100.711 12.4584C100.147 12.9547 99.8654 13.6541 99.8654 14.5565H95.9399ZM109.848 27.4494C109.848 28.6902 109.544 29.7618 108.934 30.6642C108.325 31.5666 107.491 32.2772 106.43 32.7961C105.37 33.2924 104.14 33.5405 102.742 33.5405V30.3596C103.734 30.3596 104.513 30.1002 105.077 29.5813C105.641 29.0624 105.923 28.3518 105.923 27.4494H109.848ZM105.923 14.5226C105.81 13.5751 105.483 12.8645 104.941 12.3907C104.422 11.917 103.791 11.6801 103.046 11.6801V8.46533C104.197 8.46533 105.223 8.69093 106.126 9.14213C107.028 9.59332 107.761 10.225 108.325 11.0371C108.912 11.8267 109.284 12.763 109.442 13.8458L105.923 14.5226ZM99.0194 25.9943C99.1322 27.3479 99.5157 28.4195 100.17 29.2091C100.824 29.9761 101.681 30.3596 102.742 30.3596V33.5405C100.689 33.5405 99.0194 32.9314 97.7335 31.7132C96.4701 30.495 95.7144 28.803 95.4662 26.6372L99.0194 25.9943Z" fill="black"/>
<path d="M122.71 27.4832C122.71 26.6936 122.473 26.0056 122 25.419C121.526 24.8099 120.906 24.2346 120.139 23.6932C119.394 23.1518 118.593 22.6103 117.736 22.0689C116.879 21.5049 116.066 20.8845 115.299 20.2077C114.555 19.5084 113.935 18.6962 113.438 17.7712C112.964 16.8463 112.728 15.7634 112.728 14.5226H116.653C116.653 15.2897 116.89 15.9777 117.364 16.5869C117.86 17.196 118.48 17.7712 119.225 18.3127C119.992 18.8541 120.804 19.4068 121.661 19.9708C122.519 20.5123 123.319 21.1327 124.064 21.832C124.831 22.5088 125.451 23.3097 125.925 24.2346C126.399 25.137 126.636 26.2199 126.636 27.4832H122.71ZM112.728 14.5565C112.728 13.3382 113.032 12.2779 113.641 11.3755C114.25 10.4506 115.085 9.73996 116.145 9.24365C117.228 8.72477 118.458 8.46533 119.834 8.46533V11.6801C118.841 11.6801 118.063 11.9395 117.499 12.4584C116.935 12.9547 116.653 13.6541 116.653 14.5565H112.728ZM126.636 27.4494C126.636 28.6902 126.331 29.7618 125.722 30.6642C125.113 31.5666 124.278 32.2772 123.218 32.7961C122.158 33.2924 120.928 33.5405 119.529 33.5405V30.3596C120.522 30.3596 121.3 30.1002 121.864 29.5813C122.428 29.0624 122.71 28.3518 122.71 27.4494H126.636ZM122.71 14.5226C122.598 13.5751 122.27 12.8645 121.729 12.3907C121.21 11.917 120.578 11.6801 119.834 11.6801V8.46533C120.984 8.46533 122.011 8.69093 122.913 9.14213C123.816 9.59332 124.549 10.225 125.113 11.0371C125.699 11.8267 126.072 12.763 126.23 13.8458L122.71 14.5226ZM115.807 25.9943C115.92 27.3479 116.303 28.4195 116.958 29.2091C117.612 29.9761 118.469 30.3596 119.529 30.3596V33.5405C117.476 33.5405 115.807 32.9314 114.521 31.7132C113.258 30.495 112.502 28.803 112.254 26.6372L115.807 25.9943Z" fill="black"/>
<path d="M132.625 33.033V29.8182H141.727V33.033H132.625ZM132.963 22.678V19.4294H139.697V22.678H132.963ZM130.053 9.00677H133.978V33.033H130.053V9.00677ZM132.963 9.00677H141.389V12.1877H132.963V9.00677Z" fill="black"/>
<path d="M152.736 33.033L158.049 9.00677H161.196L155.883 33.033H152.736ZM152.634 33.033L147.322 9.00677H150.469L155.781 33.033H152.634ZM145.122 33.033V9.00677H149.047V33.033H145.122ZM159.47 33.033V9.00677H163.395V33.033H159.47Z" fill="black"/>
<path d="M173.379 21.832V19.091C174.372 19.091 175.15 18.7864 175.714 18.1773C176.278 17.5457 176.56 16.6771 176.56 15.5717H180.486C180.486 16.7448 180.17 17.8051 179.538 18.7526C178.929 19.7001 178.083 20.4559 177 21.0199C175.94 21.5613 174.733 21.832 173.379 21.832ZM170.875 33.033V29.8182H173.752V33.033H170.875ZM170.875 22.1704V19.091H173.718V22.1704H170.875ZM176.899 26.4681V25.6897H180.824V26.4681H176.899ZM176.899 25.7236C176.899 24.5956 176.617 23.727 176.053 23.1179C175.489 22.4862 174.71 22.1704 173.718 22.1704V19.4294C175.071 19.4294 176.278 19.7114 177.339 20.2754C178.422 20.8168 179.268 21.5613 179.877 22.5088C180.508 23.4563 180.824 24.5279 180.824 25.7236H176.899ZM170.875 12.1877V9.00677H173.413V12.1877H170.875ZM180.486 15.6055H176.56C176.56 14.5226 176.278 13.6879 175.714 13.1014C175.15 12.4923 174.372 12.1877 173.379 12.1877V9.00677C174.778 9.00677 176.008 9.28876 177.068 9.85276C178.128 10.4168 178.963 11.1951 179.572 12.1877C180.181 13.1803 180.486 14.3196 180.486 15.6055ZM180.824 26.4342C180.824 27.7201 180.52 28.8594 179.911 29.852C179.301 30.8447 178.467 31.623 177.406 32.187C176.346 32.751 175.117 33.033 173.718 33.033V29.8182C174.71 29.8182 175.489 29.5249 176.053 28.9383C176.617 28.3292 176.899 27.4945 176.899 26.4342H180.824ZM167.627 33.033V9.00677H171.552V33.033H167.627Z" fill="black"/>
<path d="M187.292 33.033V29.8182H195.718V33.033H187.292ZM184.381 33.033V9.00677H188.307V33.033H184.381Z" fill="black"/>
<path d="M201.343 24.6407L206.926 9.00677H210.48L204.896 24.6407H201.343ZM201.309 33.033V24.6407H204.896V33.033H201.309ZM201.309 24.6407L195.726 9.00677H199.82L204.896 24.6407H201.309Z" fill="black"/>
<path d="M78.8253 54.033V37.7476H80.3607V54.033H78.8253Z" fill="black"/>
<path d="M94.897 54.033L88.3596 37.7476H90.0347L96.5489 54.033H94.897ZM88.0339 54.033V37.7476H89.5694V54.033H88.0339ZM95.3391 54.033V37.7476H96.8746V54.033H95.3391Z" fill="black"/>
<path d="M110.456 49.8453V41.9353H111.991V49.8453H110.456ZM105.151 54.033V52.5673H107.687V54.033H105.151ZM105.151 39.2133V37.7476H107.687V39.2133H105.151ZM105.151 39.2133V37.7476H107.687V39.2133H105.151ZM111.991 41.9353H110.456C110.456 41.0667 110.208 40.3998 109.711 39.9345C109.23 39.4537 108.556 39.2133 107.687 39.2133V37.7476C108.556 37.7476 109.308 37.926 109.944 38.2827C110.595 38.6239 111.099 39.1125 111.456 39.7484C111.813 40.3688 111.991 41.0977 111.991 41.9353ZM111.991 49.8453C111.991 50.6828 111.813 51.4195 111.456 52.0554C111.099 52.6758 110.595 53.1644 109.944 53.5211C109.308 53.8623 108.556 54.033 107.687 54.033V52.5673C108.556 52.5673 109.23 52.3269 109.711 51.8461C110.208 51.3653 110.456 50.6983 110.456 49.8453H111.991ZM104.314 54.033V37.7476H105.849V54.033H104.314Z" fill="black"/>
<path d="M126.12 50.2175V37.7476H127.656V50.2175H126.12ZM119.094 50.2175V37.7476H120.63V50.2175H119.094ZM127.656 50.1943C127.656 51.0318 127.477 51.7685 127.121 52.4044C126.764 53.0248 126.26 53.5134 125.608 53.8701C124.972 54.2113 124.22 54.3819 123.352 54.3819V52.9162C124.22 52.9162 124.895 52.6758 125.376 52.195C125.872 51.7142 126.12 51.0473 126.12 50.1943H127.656ZM119.094 50.1943H120.63C120.63 51.0473 120.87 51.7142 121.351 52.195C121.847 52.6758 122.53 52.9162 123.398 52.9162V54.3819C122.545 54.3819 121.793 54.2113 121.142 53.8701C120.49 53.5134 119.986 53.0248 119.629 52.4044C119.273 51.7685 119.094 51.0318 119.094 50.1943Z" fill="black"/>
<path d="M141.505 50.4734C141.505 49.8841 141.342 49.3567 141.016 48.8914C140.706 48.4261 140.295 47.9841 139.783 47.5653C139.287 47.1466 138.752 46.7278 138.178 46.309C137.604 45.8903 137.061 45.4405 136.549 44.9597C136.053 44.4789 135.642 43.9438 135.316 43.3544C135.006 42.7495 134.851 42.0671 134.851 41.3071H136.387C136.387 41.881 136.542 42.4083 136.852 42.8891C137.178 43.3544 137.589 43.7964 138.085 44.2152C138.597 44.634 139.14 45.0527 139.713 45.4715C140.287 45.8903 140.822 46.3401 141.319 46.8209C141.83 47.3017 142.242 47.8368 142.552 48.4261C142.877 49.0155 143.04 49.6979 143.04 50.4734H141.505ZM134.851 41.3536C134.851 40.5161 135.029 39.8027 135.386 39.2133C135.743 38.6239 136.247 38.1741 136.898 37.8639C137.55 37.5537 138.302 37.3986 139.155 37.3986V38.8643C138.286 38.8643 137.604 39.0892 137.108 39.539C136.627 39.9733 136.387 40.5781 136.387 41.3536H134.851ZM143.04 50.4269C143.04 51.2644 142.862 51.9779 142.505 52.5673C142.148 53.1566 141.644 53.6064 140.993 53.9166C140.357 54.2268 139.605 54.3819 138.736 54.3819V52.9162C139.605 52.9162 140.28 52.6991 140.76 52.2648C141.257 51.815 141.505 51.2024 141.505 50.4269H143.04ZM141.598 40.9581C141.52 40.2292 141.249 39.7018 140.784 39.3761C140.318 39.0349 139.775 38.8643 139.155 38.8643V37.3986C139.837 37.3986 140.458 37.546 141.016 37.8407C141.59 38.1198 142.055 38.4998 142.412 38.9806C142.784 39.4614 143.009 40.012 143.087 40.6324L141.598 40.9581ZM135.712 49.6824C135.82 50.6906 136.138 51.4816 136.666 52.0554C137.193 52.6293 137.883 52.9162 138.736 52.9162V54.3819C137.511 54.3819 136.503 53.9942 135.712 53.2187C134.936 52.4432 134.463 51.3653 134.293 49.9849L135.712 49.6824Z" fill="black"/>
<path d="M148.792 39.2133V37.7476H157.866V39.2133H148.792ZM152.561 54.033V37.7476H154.097V54.033H152.561Z" fill="black"/>
<path d="M170.189 54.033L167.187 45.9368H168.816L171.817 54.033H170.189ZM164.745 46.7976V45.3319H167.536V46.7976H164.745ZM164.745 39.2133V37.7476H167.536V39.2133H164.745ZM170.282 42.6332V41.912H171.817V42.6332H170.282ZM171.817 41.9353H170.282C170.282 41.0667 170.034 40.3998 169.537 39.9345C169.056 39.4537 168.382 39.2133 167.513 39.2133V37.7476C168.382 37.7476 169.134 37.926 169.77 38.2827C170.421 38.6239 170.925 39.1125 171.282 39.7484C171.639 40.3688 171.817 41.0977 171.817 41.9353ZM171.817 42.6099C171.817 43.4475 171.639 44.1842 171.282 44.8201C170.925 45.4405 170.421 45.929 169.77 46.2858C169.134 46.627 168.382 46.7976 167.513 46.7976V45.3319C168.382 45.3319 169.056 45.0915 169.537 44.6107C170.034 44.1299 170.282 43.463 170.282 42.6099H171.817ZM164.14 54.033V37.7476H165.675V54.033H164.14Z" fill="black"/>
<path d="M178.789 54.033V37.7476H180.325V54.033H178.789Z" fill="black"/>
<path d="M188.603 54.033V52.5673H195.21V54.033H188.603ZM189.068 46.7045V45.1691H193.814V46.7045H189.068ZM187.998 37.7476H189.534V54.033H187.998V37.7476ZM188.836 37.7476H194.977V39.2133H188.836V37.7476Z" fill="black"/>
<path d="M208.591 50.4734C208.591 49.8841 208.428 49.3567 208.102 48.8914C207.792 48.4261 207.381 47.9841 206.869 47.5653C206.373 47.1466 205.838 46.7278 205.264 46.309C204.69 45.8903 204.147 45.4405 203.636 44.9597C203.139 44.4789 202.728 43.9438 202.403 43.3544C202.092 42.7495 201.937 42.0671 201.937 41.3071H203.473C203.473 41.881 203.628 42.4083 203.938 42.8891C204.264 43.3544 204.675 43.7964 205.171 44.2152C205.683 44.634 206.226 45.0527 206.8 45.4715C207.373 45.8903 207.909 46.3401 208.405 46.8209C208.917 47.3017 209.328 47.8368 209.638 48.4261C209.964 49.0155 210.126 49.6979 210.126 50.4734H208.591ZM201.937 41.3536C201.937 40.5161 202.116 39.8027 202.472 39.2133C202.829 38.6239 203.333 38.1741 203.985 37.8639C204.636 37.5537 205.388 37.3986 206.241 37.3986V38.8643C205.373 38.8643 204.69 39.0892 204.194 39.539C203.713 39.9733 203.473 40.5781 203.473 41.3536H201.937ZM210.126 50.4269C210.126 51.2644 209.948 51.9779 209.591 52.5673C209.235 53.1566 208.731 53.6064 208.079 53.9166C207.443 54.2268 206.691 54.3819 205.822 54.3819V52.9162C206.691 52.9162 207.366 52.6991 207.847 52.2648C208.343 51.815 208.591 51.2024 208.591 50.4269H210.126ZM208.684 40.9581C208.607 40.2292 208.335 39.7018 207.87 39.3761C207.404 39.0349 206.862 38.8643 206.241 38.8643V37.3986C206.924 37.3986 207.544 37.546 208.102 37.8407C208.676 38.1198 209.142 38.4998 209.498 38.9806C209.871 39.4614 210.095 40.012 210.173 40.6324L208.684 40.9581ZM202.798 49.6824C202.907 50.6906 203.225 51.4816 203.752 52.0554C204.279 52.6293 204.969 52.9162 205.822 52.9162V54.3819C204.597 54.3819 203.589 53.9942 202.798 53.2187C202.023 52.4432 201.55 51.3653 201.379 49.9849L202.798 49.6824Z" fill="black"/>
</g>
</g>
</svg>
