<svg width="211" height="57" viewBox="0 0 211 57" fill="none" xmlns="http://www.w3.org/2000/svg">
<g id="Group 25">
<path id="Rectangle 35" d="M55.8178 56.024L45.3699 41.9138L54.2264 29.8643L60.9117 38.9162C62.932 41.6518 62.9472 46.1233 60.9457 48.9029L55.8178 56.024Z" fill="white"/>
<path id="Rectangle 36" d="M43.3567 39.0314L34.2401 26.8359L43.1843 14.9142L52.2134 27.188L43.3567 39.0314Z" fill="#6F6F6F"/>
<path id="Rectangle 62" d="M32.3911 53.8009L23.2745 41.6054L32.1313 29.7627L41.2479 41.9575L32.3911 53.8009Z" fill="#6F6F6F"/>
<path id="Rectangle 38" d="M8.71948 56.0058L3.61462 48.9277C1.61838 46.1599 1.64137 41.6891 3.66597 38.9419L23.5219 11.9994C28.4059 5.3723 36.269 5.41274 41.0846 12.0897V12.0897L8.71948 56.0058Z" fill="#999999" fill-opacity="0.21"/>
<g id="Assembly Industries">
<path d="M82.2388 28.5998V25.3851H90.868V28.5998H82.2388ZM87.9577 9.00664L82.0358 33.0328H78.2119L84.1339 9.00664H87.9577ZM88.0254 9.00664L93.9135 33.0328H90.0896L84.2015 9.00664H88.0254Z" fill="white"/>
<path d="M105.923 27.4831C105.923 26.6935 105.686 26.0055 105.212 25.4189C104.738 24.8098 104.118 24.2345 103.351 23.6931C102.606 23.1516 101.805 22.6102 100.948 22.0688C100.091 21.5048 99.2788 20.8844 98.5118 20.2076C97.7673 19.5082 97.1469 18.6961 96.6506 17.7711C96.1768 16.8462 95.9399 15.7633 95.9399 14.5225H99.8654C99.8654 15.2895 100.102 15.9776 100.576 16.5867C101.072 17.1959 101.693 17.7711 102.437 18.3126C103.204 18.854 104.016 19.4067 104.874 19.9707C105.731 20.5121 106.532 21.1325 107.276 21.8319C108.043 22.5087 108.664 23.3096 109.137 24.2345C109.611 25.1369 109.848 26.2198 109.848 27.4831H105.923ZM95.9399 14.5564C95.9399 13.3381 96.2445 12.2778 96.8536 11.3754C97.4627 10.4505 98.2974 9.73984 99.3578 9.24352C100.441 8.72465 101.67 8.46521 103.046 8.46521V11.68C102.054 11.68 101.275 11.9394 100.711 12.4583C100.147 12.9546 99.8654 13.654 99.8654 14.5564H95.9399ZM109.848 27.4493C109.848 28.6901 109.544 29.7617 108.934 30.6641C108.325 31.5664 107.491 32.2771 106.43 32.796C105.37 33.2923 104.14 33.5404 102.742 33.5404V30.3595C103.734 30.3595 104.513 30.1001 105.077 29.5812C105.641 29.0623 105.923 28.3517 105.923 27.4493H109.848ZM105.923 14.5225C105.81 13.575 105.483 12.8644 104.941 12.3906C104.422 11.9169 103.791 11.68 103.046 11.68V8.46521C104.197 8.46521 105.223 8.69081 106.126 9.142C107.028 9.5932 107.761 10.2249 108.325 11.037C108.912 11.8266 109.284 12.7629 109.442 13.8457L105.923 14.5225ZM99.0194 25.9942C99.1322 27.3478 99.5157 28.4193 100.17 29.2089C100.824 29.976 101.681 30.3595 102.742 30.3595V33.5404C100.689 33.5404 99.0194 32.9313 97.7335 31.7131C96.4701 30.4949 95.7144 28.8029 95.4662 26.6371L99.0194 25.9942Z" fill="white"/>
<path d="M122.71 27.4831C122.71 26.6935 122.473 26.0055 122 25.4189C121.526 24.8098 120.906 24.2345 120.139 23.6931C119.394 23.1516 118.593 22.6102 117.736 22.0688C116.879 21.5048 116.066 20.8844 115.299 20.2076C114.555 19.5082 113.935 18.6961 113.438 17.7711C112.964 16.8462 112.728 15.7633 112.728 14.5225H116.653C116.653 15.2895 116.89 15.9776 117.364 16.5867C117.86 17.1959 118.48 17.7711 119.225 18.3126C119.992 18.854 120.804 19.4067 121.661 19.9707C122.519 20.5121 123.319 21.1325 124.064 21.8319C124.831 22.5087 125.451 23.3096 125.925 24.2345C126.399 25.1369 126.636 26.2198 126.636 27.4831H122.71ZM112.728 14.5564C112.728 13.3381 113.032 12.2778 113.641 11.3754C114.25 10.4505 115.085 9.73984 116.145 9.24352C117.228 8.72465 118.458 8.46521 119.834 8.46521V11.68C118.841 11.68 118.063 11.9394 117.499 12.4583C116.935 12.9546 116.653 13.654 116.653 14.5564H112.728ZM126.636 27.4493C126.636 28.6901 126.331 29.7617 125.722 30.6641C125.113 31.5664 124.278 32.2771 123.218 32.796C122.158 33.2923 120.928 33.5404 119.529 33.5404V30.3595C120.522 30.3595 121.3 30.1001 121.864 29.5812C122.428 29.0623 122.71 28.3517 122.71 27.4493H126.636ZM122.71 14.5225C122.598 13.575 122.27 12.8644 121.729 12.3906C121.21 11.9169 120.578 11.68 119.834 11.68V8.46521C120.984 8.46521 122.011 8.69081 122.913 9.142C123.816 9.5932 124.549 10.2249 125.113 11.037C125.699 11.8266 126.072 12.7629 126.23 13.8457L122.71 14.5225ZM115.807 25.9942C115.92 27.3478 116.303 28.4193 116.958 29.2089C117.612 29.976 118.469 30.3595 119.529 30.3595V33.5404C117.476 33.5404 115.807 32.9313 114.521 31.7131C113.258 30.4949 112.502 28.8029 112.254 26.6371L115.807 25.9942Z" fill="white"/>
<path d="M132.625 33.0328V29.8181H141.727V33.0328H132.625ZM132.963 22.6779V19.4293H139.697V22.6779H132.963ZM130.053 9.00664H133.978V33.0328H130.053V9.00664ZM132.963 9.00664H141.389V12.1876H132.963V9.00664Z" fill="white"/>
<path d="M152.736 33.0328L158.049 9.00664H161.196L155.883 33.0328H152.736ZM152.634 33.0328L147.322 9.00664H150.469L155.781 33.0328H152.634ZM145.122 33.0328V9.00664H149.047V33.0328H145.122ZM159.47 33.0328V9.00664H163.395V33.0328H159.47Z" fill="white"/>
<path d="M173.379 21.8319V19.0909C174.372 19.0909 175.15 18.7863 175.714 18.1772C176.278 17.5455 176.56 16.677 176.56 15.5715H180.486C180.486 16.7447 180.17 17.805 179.538 18.7525C178.929 19.7 178.083 20.4557 177 21.0197C175.94 21.5612 174.733 21.8319 173.379 21.8319ZM170.875 33.0328V29.8181H173.752V33.0328H170.875ZM170.875 22.1703V19.0909H173.718V22.1703H170.875ZM176.899 26.4679V25.6896H180.824V26.4679H176.899ZM176.899 25.7235C176.899 24.5955 176.617 23.7269 176.053 23.1178C175.489 22.4861 174.71 22.1703 173.718 22.1703V19.4293C175.071 19.4293 176.278 19.7113 177.339 20.2753C178.422 20.8167 179.268 21.5612 179.877 22.5087C180.508 23.4562 180.824 24.5278 180.824 25.7235H176.899ZM170.875 12.1876V9.00664H173.413V12.1876H170.875ZM180.486 15.6054H176.56C176.56 14.5225 176.278 13.6878 175.714 13.1012C175.15 12.4921 174.372 12.1876 173.379 12.1876V9.00664C174.778 9.00664 176.008 9.28864 177.068 9.85264C178.128 10.4166 178.963 11.1949 179.572 12.1876C180.181 13.1802 180.486 14.3195 180.486 15.6054ZM180.824 26.4341C180.824 27.72 180.52 28.8593 179.911 29.8519C179.301 30.8445 178.467 31.6228 177.406 32.1868C176.346 32.7508 175.117 33.0328 173.718 33.0328V29.8181C174.71 29.8181 175.489 29.5248 176.053 28.9382C176.617 28.3291 176.899 27.4944 176.899 26.4341H180.824ZM167.627 33.0328V9.00664H171.552V33.0328H167.627Z" fill="white"/>
<path d="M187.292 33.0328V29.8181H195.718V33.0328H187.292ZM184.381 33.0328V9.00664H188.307V33.0328H184.381Z" fill="white"/>
<path d="M201.343 24.6406L206.926 9.00664H210.48L204.896 24.6406H201.343ZM201.309 33.0328V24.6406H204.896V33.0328H201.309ZM201.309 24.6406L195.726 9.00664H199.82L204.896 24.6406H201.309Z" fill="white"/>
<path d="M78.8253 54.0328V37.7475H80.3607V54.0328H78.8253Z" fill="white"/>
<path d="M94.897 54.0328L88.3596 37.7475H90.0347L96.5489 54.0328H94.897ZM88.0339 54.0328V37.7475H89.5694V54.0328H88.0339ZM95.3391 54.0328V37.7475H96.8746V54.0328H95.3391Z" fill="white"/>
<path d="M110.456 49.8452V41.9351H111.991V49.8452H110.456ZM105.151 54.0328V52.5671H107.687V54.0328H105.151ZM105.151 39.2132V37.7475H107.687V39.2132H105.151ZM105.151 39.2132V37.7475H107.687V39.2132H105.151ZM111.991 41.9351H110.456C110.456 41.0666 110.208 40.3997 109.711 39.9344C109.23 39.4536 108.556 39.2132 107.687 39.2132V37.7475C108.556 37.7475 109.308 37.9258 109.944 38.2826C110.595 38.6238 111.099 39.1123 111.456 39.7482C111.813 40.3686 111.991 41.0976 111.991 41.9351ZM111.991 49.8452C111.991 50.6827 111.813 51.4194 111.456 52.0553C111.099 52.6757 110.595 53.1643 109.944 53.521C109.308 53.8622 108.556 54.0328 107.687 54.0328V52.5671C108.556 52.5671 109.23 52.3267 109.711 51.8459C110.208 51.3651 110.456 50.6982 110.456 49.8452H111.991ZM104.314 54.0328V37.7475H105.849V54.0328H104.314Z" fill="white"/>
<path d="M126.12 50.2174V37.7475H127.656V50.2174H126.12ZM119.094 50.2174V37.7475H120.63V50.2174H119.094ZM127.656 50.1941C127.656 51.0317 127.477 51.7684 127.121 52.4043C126.764 53.0247 126.26 53.5132 125.608 53.87C124.972 54.2112 124.22 54.3818 123.352 54.3818V52.9161C124.22 52.9161 124.895 52.6757 125.376 52.1949C125.872 51.7141 126.12 51.0472 126.12 50.1941H127.656ZM119.094 50.1941H120.63C120.63 51.0472 120.87 51.7141 121.351 52.1949C121.847 52.6757 122.53 52.9161 123.398 52.9161V54.3818C122.545 54.3818 121.793 54.2112 121.142 53.87C120.49 53.5132 119.986 53.0247 119.629 52.4043C119.273 51.7684 119.094 51.0317 119.094 50.1941Z" fill="white"/>
<path d="M141.505 50.4733C141.505 49.8839 141.342 49.3566 141.016 48.8913C140.706 48.426 140.295 47.984 139.783 47.5652C139.287 47.1465 138.752 46.7277 138.178 46.3089C137.604 45.8902 137.061 45.4404 136.549 44.9596C136.053 44.4788 135.642 43.9437 135.316 43.3543C135.006 42.7494 134.851 42.067 134.851 41.307H136.387C136.387 41.8809 136.542 42.4082 136.852 42.889C137.178 43.3543 137.589 43.7963 138.085 44.2151C138.597 44.6339 139.14 45.0526 139.713 45.4714C140.287 45.8902 140.822 46.3399 141.319 46.8207C141.83 47.3015 142.242 47.8366 142.552 48.426C142.877 49.0154 143.04 49.6978 143.04 50.4733H141.505ZM134.851 41.3535C134.851 40.516 135.029 39.8025 135.386 39.2132C135.743 38.6238 136.247 38.174 136.898 37.8638C137.55 37.5536 138.302 37.3985 139.155 37.3985V38.8642C138.286 38.8642 137.604 39.0891 137.108 39.5389C136.627 39.9731 136.387 40.578 136.387 41.3535H134.851ZM143.04 50.4268C143.04 51.2643 142.862 51.9778 142.505 52.5671C142.148 53.1565 141.644 53.6063 140.993 53.9165C140.357 54.2267 139.605 54.3818 138.736 54.3818V52.9161C139.605 52.9161 140.28 52.699 140.76 52.2647C141.257 51.8149 141.505 51.2023 141.505 50.4268H143.04ZM141.598 40.958C141.52 40.2291 141.249 39.7017 140.784 39.376C140.318 39.0348 139.775 38.8642 139.155 38.8642V37.3985C139.837 37.3985 140.458 37.5458 141.016 37.8405C141.59 38.1197 142.055 38.4997 142.412 38.9805C142.784 39.4613 143.009 40.0119 143.087 40.6323L141.598 40.958ZM135.712 49.6823C135.82 50.6905 136.138 51.4815 136.666 52.0553C137.193 52.6292 137.883 52.9161 138.736 52.9161V54.3818C137.511 54.3818 136.503 53.9941 135.712 53.2186C134.936 52.4431 134.463 51.3651 134.293 49.9848L135.712 49.6823Z" fill="white"/>
<path d="M148.792 39.2132V37.7475H157.866V39.2132H148.792ZM152.561 54.0328V37.7475H154.097V54.0328H152.561Z" fill="white"/>
<path d="M170.189 54.0328L167.187 45.9367H168.816L171.817 54.0328H170.189ZM164.745 46.7975V45.3318H167.536V46.7975H164.745ZM164.745 39.2132V37.7475H167.536V39.2132H164.745ZM170.282 42.6331V41.9119H171.817V42.6331H170.282ZM171.817 41.9351H170.282C170.282 41.0666 170.034 40.3997 169.537 39.9344C169.056 39.4536 168.382 39.2132 167.513 39.2132V37.7475C168.382 37.7475 169.134 37.9258 169.77 38.2826C170.421 38.6238 170.925 39.1123 171.282 39.7482C171.639 40.3686 171.817 41.0976 171.817 41.9351ZM171.817 42.6098C171.817 43.4474 171.639 44.1841 171.282 44.82C170.925 45.4404 170.421 45.9289 169.77 46.2857C169.134 46.6269 168.382 46.7975 167.513 46.7975V45.3318C168.382 45.3318 169.056 45.0914 169.537 44.6106C170.034 44.1298 170.282 43.4629 170.282 42.6098H171.817ZM164.14 54.0328V37.7475H165.675V54.0328H164.14Z" fill="white"/>
<path d="M178.789 54.0328V37.7475H180.325V54.0328H178.789Z" fill="white"/>
<path d="M188.603 54.0328V52.5671H195.21V54.0328H188.603ZM189.068 46.7044V45.1689H193.814V46.7044H189.068ZM187.998 37.7475H189.534V54.0328H187.998V37.7475ZM188.836 37.7475H194.977V39.2132H188.836V37.7475Z" fill="white"/>
<path d="M208.591 50.4733C208.591 49.8839 208.428 49.3566 208.102 48.8913C207.792 48.426 207.381 47.984 206.869 47.5652C206.373 47.1465 205.838 46.7277 205.264 46.3089C204.69 45.8902 204.147 45.4404 203.636 44.9596C203.139 44.4788 202.728 43.9437 202.403 43.3543C202.092 42.7494 201.937 42.067 201.937 41.307H203.473C203.473 41.8809 203.628 42.4082 203.938 42.889C204.264 43.3543 204.675 43.7963 205.171 44.2151C205.683 44.6339 206.226 45.0526 206.8 45.4714C207.373 45.8902 207.909 46.3399 208.405 46.8207C208.917 47.3015 209.328 47.8366 209.638 48.426C209.964 49.0154 210.126 49.6978 210.126 50.4733H208.591ZM201.937 41.3535C201.937 40.516 202.116 39.8025 202.472 39.2132C202.829 38.6238 203.333 38.174 203.985 37.8638C204.636 37.5536 205.388 37.3985 206.241 37.3985V38.8642C205.373 38.8642 204.69 39.0891 204.194 39.5389C203.713 39.9731 203.473 40.578 203.473 41.3535H201.937ZM210.126 50.4268C210.126 51.2643 209.948 51.9778 209.591 52.5671C209.235 53.1565 208.731 53.6063 208.079 53.9165C207.443 54.2267 206.691 54.3818 205.822 54.3818V52.9161C206.691 52.9161 207.366 52.699 207.847 52.2647C208.343 51.8149 208.591 51.2023 208.591 50.4268H210.126ZM208.684 40.958C208.607 40.2291 208.335 39.7017 207.87 39.376C207.404 39.0348 206.862 38.8642 206.241 38.8642V37.3985C206.924 37.3985 207.544 37.5458 208.102 37.8405C208.676 38.1197 209.142 38.4997 209.498 38.9805C209.871 39.4613 210.095 40.0119 210.173 40.6323L208.684 40.958ZM202.798 49.6823C202.907 50.6905 203.225 51.4815 203.752 52.0553C204.279 52.6292 204.969 52.9161 205.822 52.9161V54.3818C204.597 54.3818 203.589 53.9941 202.798 53.2186C202.023 52.4431 201.55 51.3651 201.379 49.9848L202.798 49.6823Z" fill="white"/>
</g>
</g>
</svg>
