<svg width="34" height="40" viewBox="0 0 34 40" fill="none" xmlns="http://www.w3.org/2000/svg">
<path id="image 102 (Traced)" fill-rule="evenodd" clip-rule="evenodd" d="M2.09811 0.982058C1.3484 1.22387 0.688431 1.79058 0.32006 2.50886L0.0855606 2.96618L0.066255 18.792L0.046875 34.6178L0.202959 35.0431C0.399519 35.5789 0.733602 36.0281 1.207 36.3932C1.92481 36.9469 1.86279 36.9388 5.56827 36.9663C8.85722 36.9907 8.89129 36.9894 9.09023 36.8299C9.30319 36.6591 9.35723 36.3396 9.21814 36.0746C9.07055 35.7934 8.76614 35.7676 5.5717 35.7659C2.73288 35.7644 2.44561 35.7525 2.17265 35.6257C1.78922 35.4477 1.34735 34.9467 1.24628 34.5757C1.19172 34.3751 1.16809 29.5192 1.17003 18.8918C1.17241 6.22982 1.1906 3.44767 1.27274 3.21308C1.42599 2.77515 1.72273 2.42965 2.11473 2.23277L2.47081 2.05397L11.1679 2.03375L19.8651 2.01353L19.891 4.12422C19.9224 6.68296 19.9582 6.82709 20.7633 7.64815C21.5684 8.46921 21.7099 8.50569 24.2175 8.5377L26.286 8.56415V13.6055C26.286 18.4179 26.2923 18.6548 26.4254 18.8225C26.6192 19.0666 27.0708 19.0666 27.2646 18.8225C27.3978 18.6547 27.4041 18.4144 27.4041 13.451C27.4041 8.34682 27.4013 8.24731 27.2461 7.81516C27.0985 7.40398 26.8898 7.17289 24.0596 4.28652C21.2293 1.40015 21.0027 1.1873 20.5996 1.03679C20.1688 0.875938 20.1554 0.87571 11.2822 0.880803C4.33525 0.884756 2.33119 0.906877 2.09811 0.982058ZM23.8827 7.32006L22.3727 7.34104L21.9627 7.12789C21.6399 6.96004 21.5013 6.82701 21.3105 6.50219L21.0683 6.08957V4.4904V2.89115L23.2305 5.09511L25.3927 7.29915L23.8827 7.32006ZM4.39816 7.41257C4.19623 7.49566 3.99885 7.77905 3.99885 7.98589C3.99885 8.18217 4.24498 8.46153 4.46681 8.5171C4.55789 8.5399 6.74017 8.54887 9.31638 8.53701L14.0003 8.51543L14.1428 8.33595C14.3926 8.02131 14.3024 7.62458 13.9361 7.42557C13.7403 7.31922 4.65509 7.30683 4.39816 7.41257ZM4.15337 11.5664C3.94839 11.832 3.95823 12.0917 4.18185 12.3197L4.36476 12.5063L13.7042 12.5039C20.9282 12.5021 23.0703 12.4805 23.1618 12.4089C23.3544 12.258 23.4604 11.9908 23.4095 11.7839C23.3006 11.3411 23.8829 11.3661 13.6777 11.3661H4.30782L4.15337 11.5664ZM4.18185 15.0495C3.95823 15.2774 3.94839 15.5371 4.15337 15.8028L4.30782 16.0031H13.6777C23.8808 16.0031 23.3006 16.028 23.4093 15.5862C23.4638 15.3647 23.2967 14.9813 23.1147 14.9101C23.0484 14.8841 18.8025 14.8628 13.6794 14.8628H4.36476L4.18185 15.0495ZM9.84114 20.2173C9.71323 20.274 9.52479 20.4352 9.42245 20.5753C9.15217 20.9457 4.67388 28.675 4.50221 29.0676C4.30871 29.51 4.37378 29.977 4.67827 30.3307C4.98306 30.6847 6.35458 31.4895 6.83058 31.5935C7.28199 31.6923 7.79214 31.6308 8.20374 31.428C8.41737 31.3228 8.52135 31.3063 8.59239 31.3665C8.66939 31.4317 8.62727 31.5342 8.38822 31.8643C7.98788 32.417 7.85974 32.7517 7.85512 33.257C7.84573 34.2851 8.65552 35.1534 9.62766 35.1577L10.0015 35.1594L10.1317 35.5333C10.3736 36.2281 11.1327 36.7558 11.89 36.7558C12.1186 36.7558 12.1981 36.7862 12.1981 36.8736C12.1981 37.2262 12.7242 37.8897 13.2033 38.1414C13.5166 38.306 14.2361 38.3652 14.5834 38.255C14.7474 38.2029 14.7898 38.2321 14.9375 38.4982C15.2307 39.0265 15.9031 39.4164 16.5214 39.4164C16.8987 39.4164 17.3964 39.2287 17.7192 38.9647L17.9852 38.7471L18.8137 39.2388C19.4743 39.6308 19.7257 39.7392 20.0551 39.7739C21.0241 39.8758 21.8186 39.2986 22.1395 38.2596C22.1763 38.1404 22.2026 38.1387 22.4416 38.2406C22.5855 38.302 22.8991 38.3521 23.1384 38.3521C23.9612 38.3521 24.6831 37.81 24.9095 37.0218L25.0187 36.6417L25.4847 36.6376C26.2879 36.6306 26.9929 36.1085 27.2286 35.346C27.3507 34.951 27.354 34.9479 27.5713 35.0252C27.8471 35.1233 28.5095 35.0572 28.803 34.9025C29.768 34.3936 30.1379 33.313 29.6894 32.3138L29.5 31.8918L29.8257 31.6971C30.1376 31.5107 30.1705 31.5064 30.5969 31.5963C31.2286 31.7293 31.6748 31.6082 32.6257 31.0457C33.054 30.7925 33.4666 30.5284 33.5425 30.4589C33.806 30.2181 33.907 29.9127 33.8713 29.465C33.8395 29.0668 33.6803 28.7699 31.3475 24.757C29.0932 20.8793 28.8287 20.4566 28.5529 20.291C28.169 20.0604 27.7266 20.0534 27.3081 20.2712C26.6445 20.6164 25.7202 21.2439 25.5708 21.4504C25.1538 22.027 24.9771 22.6747 25.0817 23.2422L25.1481 23.6017L24.8924 23.6507C24.4941 23.7268 24.1432 23.6495 23.3011 23.3001C22.1753 22.8328 21.8069 22.8214 20.3112 23.2071L19.1441 23.508L18.634 23.2517C17.6151 22.7397 17.0597 22.754 15.6269 23.3288C14.6801 23.7087 14.086 23.7483 13.5585 23.4668C13.2464 23.3002 13.2417 23.2915 13.2417 22.8947C13.2417 21.9266 12.8255 21.3524 11.585 20.6088C10.682 20.0676 10.3475 19.9925 9.84114 20.2173ZM10.9843 21.6021C11.98 22.2091 12.2287 22.5673 12.058 23.1483C11.9934 23.3679 8.66521 29.1935 8.11511 30.0497C7.95538 30.2984 7.63762 30.4463 7.26366 30.4463C7.01335 30.4463 6.79891 30.3609 6.28503 30.0567C5.923 29.8425 5.61038 29.6234 5.59026 29.5699C5.57021 29.5165 6.58297 27.6992 7.84089 25.5315C10.3901 21.1387 10.3254 21.2483 10.371 21.2483C10.3891 21.2483 10.6651 21.4075 10.9843 21.6021ZM30.3706 25.3818C31.6907 27.6552 32.7709 29.5355 32.7709 29.5602C32.7709 29.5849 32.4556 29.7944 32.0701 30.0257C31.5036 30.3658 31.3059 30.4463 31.0376 30.4463C30.4634 30.4463 30.3038 30.2704 29.271 28.4986C28.7566 27.6162 28.2897 26.8383 28.2335 26.7699C28.0988 26.6061 27.6842 26.611 27.49 26.7785C27.1509 27.0712 27.1897 27.1899 28.1924 28.926C28.7116 29.8249 29.151 30.5988 29.1689 30.6456C29.2005 30.728 28.6102 31.1305 28.4578 31.1305C28.4166 31.1305 26.6561 30.0872 24.5459 28.812C22.4355 27.5368 20.6407 26.4935 20.5573 26.4935C20.2617 26.4935 20.021 26.8022 19.9604 27.2591C19.9295 27.4921 19.8294 27.806 19.738 27.9569C19.566 28.2408 19.0652 28.5459 18.7713 28.5459C18.6094 28.5459 18.6085 28.537 18.6085 27.0605C18.6085 25.335 18.6659 25.1234 19.2242 24.7898C19.6562 24.5315 21.6128 24.0396 21.9826 24.0961C22.1369 24.1198 22.6065 24.2822 23.0261 24.457C23.7321 24.7512 23.8417 24.7752 24.497 24.779C24.8865 24.7813 25.3226 24.7577 25.4661 24.7266C25.7168 24.6722 25.7357 24.684 25.9506 25.0296C26.2353 25.4874 26.501 25.5981 26.7893 25.3792C27.1905 25.0745 27.1775 24.9252 26.6702 24.0127C25.9523 22.7215 26.0273 22.3867 27.1931 21.6782C27.5756 21.4456 27.907 21.2538 27.9294 21.2519C27.9519 21.2499 29.0504 23.1083 30.3706 25.3818ZM17.7774 24.1444C17.9065 24.1903 18.0122 24.2404 18.0122 24.2557C18.0122 24.2711 17.9136 24.4421 17.7932 24.6359C17.6727 24.8296 17.5385 25.1575 17.495 25.3645C17.3914 25.8569 17.3914 28.6219 17.4949 28.9021C17.6159 29.2292 18.012 29.6042 18.3284 29.6911C18.6913 29.7908 19.2928 29.6828 19.7815 29.4302C20.195 29.2165 20.7322 28.6571 20.8871 28.2788L20.9928 28.0209L22.3163 28.8225C23.0443 29.2633 24.6964 30.2584 25.9878 31.0337C27.2792 31.809 28.4281 32.5419 28.5408 32.6623C28.8081 32.9478 28.8155 33.3149 28.5602 33.6242C28.3405 33.8905 28.1029 33.9524 27.7637 33.8316C27.6274 33.783 26.404 33.0699 25.0451 32.2469C23.2594 31.1654 22.5101 30.7504 22.343 30.7504C21.8304 30.7504 21.6135 31.4129 22.0186 31.7411C22.1313 31.8324 23.0702 32.4175 24.1049 33.0413C26.1991 34.3038 26.3019 34.3997 26.1429 34.9409C26.0393 35.2937 25.8182 35.4635 25.4626 35.4635C25.2497 35.4635 24.7769 35.212 23.1761 34.2472C22.0661 33.5783 21.092 33.0309 21.0114 33.0309C20.7662 33.0309 20.4719 33.3208 20.4719 33.5624C20.4719 33.6813 20.493 33.8344 20.5186 33.9026C20.5443 33.9709 21.2235 34.4222 22.028 34.9057C22.8325 35.3891 23.5662 35.8683 23.6585 35.9704C23.9112 36.2502 23.8888 36.7036 23.6083 36.9897C23.2388 37.3666 23.07 37.3156 21.4438 36.3368C20.6458 35.8564 19.9514 35.4635 19.9006 35.4635C19.6906 35.4635 19.4327 35.6496 19.3456 35.8639C19.2064 36.2065 19.3666 36.4227 20.1016 36.8843C20.4488 37.1023 20.7916 37.3546 20.8633 37.4448C21.0097 37.629 21.035 38.0554 20.9132 38.2875C20.8348 38.4368 20.4277 38.6562 20.229 38.6562C20.1358 38.6562 18.8646 37.9472 18.7339 37.8223C18.7002 37.7902 18.7254 37.6356 18.7898 37.4786C18.854 37.3217 18.9066 36.9818 18.9066 36.7234C18.9066 35.8957 18.429 35.1984 17.6703 34.9187L17.4211 34.8268L17.464 34.404C17.4876 34.1714 17.4688 33.8372 17.4221 33.6613C17.2222 32.9076 16.4307 32.2708 15.6939 32.2708C15.3575 32.2708 15.3362 32.2581 15.2562 32.0107C14.8646 30.8007 13.4271 30.2999 12.3951 31.014L12.1375 31.1923L11.776 30.8368C11.5646 30.6291 11.2873 30.4426 11.1081 30.3879C10.6828 30.258 10.0965 30.2711 9.73499 30.4186C9.51659 30.5077 9.40762 30.5196 9.34985 30.4606C9.29201 30.4017 9.76011 29.533 11.0042 27.3907C11.9586 25.7474 12.7484 24.3921 12.7595 24.3789C12.7705 24.3656 12.959 24.4488 13.1784 24.5638C13.5032 24.7342 13.7014 24.7788 14.248 24.8047C14.9046 24.8357 14.9402 24.8282 15.9251 24.4532C16.9559 24.0608 17.3551 23.9942 17.7774 24.1444ZM10.9757 31.693C11.3846 32.1101 11.3377 32.314 10.5956 33.344C10.0903 34.0455 9.79216 34.1679 9.31377 33.8705C9.06332 33.7147 8.9331 33.3431 9.02523 33.047C9.10402 32.7939 9.94661 31.6385 10.1269 31.5364C10.4316 31.364 10.702 31.4139 10.9757 31.693ZM13.9637 32.056C14.1756 32.259 14.2549 32.6515 14.1323 32.8899C13.86 33.4191 12.3783 35.4065 12.1766 35.5128C11.888 35.6651 11.451 35.5501 11.2746 35.2756C11.0127 34.868 11.0945 34.655 12.0304 33.3072C12.5926 32.4977 12.9863 32.004 13.1299 31.929C13.4039 31.7856 13.7339 31.8359 13.9637 32.056ZM16.0596 33.6002C16.3233 33.8265 16.394 34.1231 16.2613 34.447C16.1497 34.7193 14.6185 36.8985 14.4403 37.0384C14.3756 37.0893 14.1845 37.1321 14.0158 37.1334C13.5901 37.1368 13.3162 36.8583 13.3162 36.4221C13.3162 36.1459 13.4123 35.9714 14.1374 34.9312C14.589 34.2832 15.0437 33.6762 15.1479 33.5821C15.4046 33.35 15.7766 33.3573 16.0596 33.6002ZM17.5281 36.1668C17.6571 36.2798 17.7363 36.4411 17.7618 36.6419C17.7939 36.8955 17.7604 37.0069 17.559 37.3142C17.1093 38.0009 16.8769 38.2001 16.5255 38.2001C16.2781 38.2001 16.1657 38.1531 15.9939 37.9779C15.6614 37.6388 15.6964 37.3565 16.1528 36.6959C16.36 36.396 16.5864 36.1167 16.6559 36.0753C16.8858 35.9387 17.3199 35.9841 17.5281 36.1668Z" fill="black"/>
</svg>
