<svg width="39" height="39" viewBox="0 0 39 39" fill="none" xmlns="http://www.w3.org/2000/svg">
<path id="image 101 (Traced)" fill-rule="evenodd" clip-rule="evenodd" d="M10.071 0.862102C8.94917 1.15049 8.74233 1.31783 5.02558 4.94451C1.44723 8.43609 1.1532 8.76981 0.825328 9.71141L0.654992 10.2006L0.631443 21.2179C0.61399 29.4151 0.630757 32.3399 0.696986 32.6446C0.834779 33.2779 1.125 33.8037 1.62518 34.3259C2.14008 34.8635 2.88681 35.2733 3.5805 35.3989C3.84222 35.4464 8.13095 35.4733 15.4085 35.4733H26.826L27.8243 36.7352C29.2505 38.538 29.6191 38.7858 30.875 38.7858C31.5375 38.7859 31.6436 38.7652 32.0944 38.548C32.366 38.4171 32.7315 38.1659 32.9066 37.9897C33.3425 37.5511 35.5224 33.7842 35.5224 33.4697C35.5224 33.1614 35.2866 32.9423 34.9547 32.9423C34.6159 32.9423 34.5605 33.0166 33.4298 34.9894C32.9371 35.8492 32.4304 36.7128 32.304 36.9085C31.7458 37.7724 30.5667 37.9438 29.8073 37.2715C29.6383 37.1218 28.6247 35.8939 27.555 34.5428C25.4016 31.8232 25.3051 31.6578 25.4636 30.9607C25.7576 29.6682 27.391 29.2124 28.3112 30.1661C28.4216 30.2805 28.8975 30.8592 29.3688 31.452C30.2666 32.5815 30.4744 32.7443 30.8213 32.5899C30.952 32.5317 31.4971 31.6545 32.7375 29.5059C33.691 27.8544 34.5618 26.4069 34.6728 26.2891C35.3944 25.5235 36.7772 25.6706 37.3106 26.5696C37.5554 26.9821 37.6203 27.4666 37.4831 27.8557C37.4232 28.0256 36.9575 28.8875 36.4483 29.7711C35.8692 30.776 35.5224 31.4567 35.5224 31.5888C35.5224 32.0234 36.0836 32.2744 36.4265 31.9932C36.5922 31.8573 38.3403 28.8831 38.5595 28.3642C38.6446 28.1628 38.6853 27.8491 38.6853 27.3949C38.6853 26.7867 38.6617 26.6767 38.4357 26.2283C37.926 25.2171 37.0152 24.6617 35.8537 24.6538C35.2857 24.65 35.183 24.6734 34.6583 24.9267C34.2922 25.1035 33.979 25.3213 33.7935 25.5282C33.6336 25.7067 33.1255 26.5102 32.6644 27.3138L31.8261 28.7748L31.788 16.1007L31.7499 3.42652L31.5767 3.00823C31.1921 2.07951 30.3872 1.29148 29.4425 0.918752L29.0062 0.746644L19.8226 0.731384C10.9165 0.71657 10.6217 0.720516 10.071 0.862102ZM29.1284 2.02338C29.5632 2.22191 29.9959 2.58719 30.2356 2.95813C30.6639 3.62066 30.6449 2.94771 30.6437 17.4556C30.643 24.9577 30.6132 30.8659 30.5758 30.9236C30.5262 31.0001 30.3755 30.858 29.9863 30.3676C28.9505 29.0626 28.6199 28.7997 27.7373 28.5788C26.8109 28.347 25.8899 28.6018 25.1236 29.3019L24.6426 29.7414H23.9973C23.2636 29.7414 23.0743 29.8508 23.0743 30.2752C23.0743 30.6245 23.3876 30.858 23.8561 30.858H24.2229L24.2594 31.3977C24.3085 32.1219 24.5229 32.5753 25.2464 33.484C25.5747 33.8964 25.8434 34.2614 25.8434 34.2952C25.8434 34.3893 4.49277 34.372 3.89633 34.2774C2.99336 34.1343 2.38769 33.6861 1.99642 32.8713L1.79819 32.4585V21.8448V11.2311L2.02797 10.8681C2.19533 10.6037 2.36864 10.4484 2.66549 10.297L3.07308 10.089H4.95935C5.99676 10.089 7.03013 10.0548 7.25572 10.013C8.24962 9.82888 9.28451 9.09258 9.75101 8.23755C10.1706 7.46873 10.2197 7.13203 10.2197 5.02595C10.2197 3.12607 10.2203 3.11967 10.4168 2.73444C10.6256 2.32531 10.9027 2.0868 11.3542 1.92795C11.5754 1.85008 13.3183 1.83415 20.2036 1.8471L28.7776 1.86326L29.1284 2.02338ZM9.0731 4.80367C9.02501 7.17178 8.9981 7.34255 8.57992 7.9319C8.35982 8.24209 8.04628 8.50212 7.65485 8.69901C7.26075 8.89725 6.47804 8.96804 4.44682 8.98941L2.52259 9.00958L5.8153 5.79299C7.62627 4.02383 9.11014 2.5834 9.1128 2.59203C9.11547 2.60059 9.09764 3.59587 9.0731 4.80367ZM25.0868 3.51101C24.9999 3.61887 24.9268 3.76128 24.9242 3.82738C24.9216 3.89348 24.7759 4.04839 24.6003 4.17152C24.0268 4.57372 23.785 5.34404 24.0429 5.94686C24.192 6.29539 24.644 6.6306 25.3395 6.90841C25.9729 7.16136 26.1954 7.37002 26.1105 7.63131C25.9649 8.07952 25.3517 8.21686 24.7764 7.93019C24.3839 7.73463 24.1996 7.74237 23.9727 7.96406C23.5996 8.32852 23.814 8.77174 24.4973 9.04836C24.821 9.17945 24.9233 9.26335 24.9948 9.45675C25.2099 10.0376 26.072 9.90168 26.072 9.28695C26.072 9.20893 26.1501 9.11037 26.2456 9.06794C26.815 8.81447 27.2893 8.09768 27.2907 7.48846C27.2917 7.07293 27.0462 6.56859 26.7188 6.31341C26.5808 6.20591 26.216 6.02056 25.908 5.90138C25.1072 5.5917 24.9333 5.40545 25.201 5.14394C25.3491 4.99938 25.7416 4.99677 25.9958 5.13866C26.4873 5.41312 27.0532 5.11022 26.954 4.62583C26.8946 4.33574 26.8076 4.24492 26.4088 4.05636C26.185 3.9505 26.072 3.84941 26.072 3.75487C26.072 3.32944 25.3725 3.1563 25.0868 3.51101ZM3.84184 11.6528C3.75031 11.6888 3.63881 11.785 3.59415 11.8665C3.54224 11.9612 3.51298 12.7679 3.51298 14.1039C3.51298 16.0939 3.52022 16.2002 3.6654 16.342C3.89237 16.5637 4.30026 16.5405 4.49818 16.2947C4.64947 16.1069 4.6561 16.0118 4.65373 14.0429C4.65122 11.8848 4.6452 11.8444 4.29919 11.6644C4.10736 11.5646 4.06834 11.5636 3.84184 11.6528ZM5.97862 11.6571C5.58887 11.7979 5.57073 11.9057 5.57073 14.0781C5.57073 16.0095 5.57766 16.1073 5.72872 16.2947C5.90873 16.5183 6.28202 16.5606 6.52789 16.3854C6.65981 16.2914 6.67993 16.1579 6.71392 15.1507L6.75203 14.0215L7.55135 15.1527C7.99102 15.7749 8.41881 16.3305 8.50196 16.3874C8.7402 16.5504 8.99292 16.5096 9.24031 16.2679L9.46849 16.0451L9.44402 13.9995C9.42017 12.0086 9.41499 11.9495 9.25227 11.7907C9.03324 11.5769 8.66269 11.5768 8.4435 11.7905C8.2913 11.9389 8.27286 12.0485 8.23818 13.0126L8.20008 14.0716L7.38124 12.9066C6.5352 11.7029 6.33804 11.5272 5.97862 11.6571ZM10.2197 11.6746C10.1149 11.7261 9.9862 11.8558 9.93362 11.9629C9.8475 12.1384 9.90725 12.3548 10.5397 14.1566C11.3 16.3231 11.3948 16.4909 11.8583 16.4909C12.3391 16.4909 12.4337 16.3214 13.1487 14.1773C13.5079 13.1003 13.8017 12.1797 13.8017 12.1318C13.8017 12.0838 13.7306 11.9562 13.6437 11.8484C13.456 11.6152 12.975 11.5723 12.8012 11.7731C12.7437 11.8396 12.5062 12.4479 12.2734 13.1249L11.8501 14.3558L11.4155 13.1358C11.1764 12.4649 10.921 11.8601 10.8479 11.7919C10.6526 11.6094 10.4351 11.5689 10.2197 11.6746ZM15.6689 11.6802C15.1451 11.8097 14.8314 11.9824 14.4585 12.3468C13.9382 12.8554 13.7668 13.2822 13.7658 14.0716C13.7651 14.6606 13.7905 14.789 13.9765 15.1349C14.2365 15.6185 14.6853 16.0538 15.1589 16.2816C15.6705 16.5277 16.8047 16.5306 17.3106 16.2871C17.79 16.0563 18.2827 15.5625 18.5186 15.0765C18.8044 14.4876 18.8021 13.6528 18.5131 13.0502C18.0103 12.002 16.7748 11.4069 15.6689 11.6802ZM19.7703 11.6528C19.6788 11.6888 19.5673 11.785 19.5227 11.8665C19.4708 11.9612 19.4415 12.7679 19.4415 14.1039C19.4415 16.0939 19.4487 16.2002 19.5939 16.342C19.8209 16.5637 20.2288 16.5405 20.4267 16.2947C20.578 16.1069 20.5846 16.0118 20.5822 14.0429C20.5797 11.8848 20.5737 11.8444 20.2277 11.6644C20.0359 11.5646 19.9969 11.5636 19.7703 11.6528ZM23.1259 11.6526C22.4085 11.7975 21.745 12.2847 21.3846 12.9314C21.0801 13.478 21.0298 14.3276 21.2657 14.9386C21.4707 15.4694 21.9003 15.9491 22.4248 16.2329C22.7969 16.4342 22.8969 16.4537 23.557 16.4537C24.374 16.4537 24.692 16.3451 25.131 15.9162C25.4611 15.5939 25.4824 15.2358 25.1853 15.0075C24.923 14.8059 24.6859 14.8123 24.4203 15.0282C24.0957 15.2919 23.8999 15.3743 23.5977 15.3743C22.87 15.3743 22.2614 14.7776 22.2614 14.0643C22.2614 13.0995 23.347 12.4713 24.2429 12.9177C24.6335 13.1124 24.8646 13.1058 25.068 12.8944C25.3007 12.6523 25.2868 12.2887 25.0361 12.0618C24.6731 11.7332 23.7285 11.5309 23.1259 11.6526ZM26.3139 11.8245C26.152 11.9929 26.1482 12.0441 26.1482 14.0626C26.1482 15.3135 26.1786 16.184 26.2254 16.2692C26.3334 16.4663 26.7637 16.5645 27.5201 16.5645C28.5901 16.5645 28.8919 16.4196 28.8919 15.9056C28.8919 15.5275 28.6033 15.3743 27.8908 15.3743H27.2914V15.0021V14.6299H27.846C28.4616 14.6299 28.6917 14.5283 28.7705 14.2216C28.8262 14.0047 28.6554 13.6292 28.4693 13.5595C28.4015 13.5341 28.1087 13.5133 27.8187 13.5133H27.2914V13.141V12.7688H27.926C28.4906 12.7688 28.5787 12.7499 28.7262 12.5966C28.9463 12.3677 28.9416 12.0215 28.7155 11.8141C28.5524 11.6644 28.4618 11.6522 27.5094 11.6522C26.5316 11.6522 26.4713 11.6609 26.3139 11.8245ZM17.0334 13.0188C17.4 13.292 17.558 13.6136 17.558 14.0873C17.558 15.3435 15.8487 15.8433 15.1275 14.798C14.679 14.148 14.9468 13.1877 15.6651 12.8695C16.0419 12.7025 16.7062 12.7751 17.0334 13.0188ZM2.52777 18.1759C2.31819 18.436 2.32825 18.6903 2.55689 18.9136L2.74391 19.0963H4.8086H6.87329L7.06031 18.9136C7.28895 18.6903 7.29901 18.436 7.08942 18.1759L6.93151 17.9797H4.8086H2.68569L2.52777 18.1759ZM8.54303 18.1286C8.33078 18.3359 8.34244 18.7284 8.56697 18.9345L8.7434 19.0963H19.2022H29.661L29.848 18.9136C30.0766 18.6903 30.0867 18.436 29.8771 18.1759L29.7192 17.9797H19.2073C8.79705 17.9797 8.69401 17.9811 8.54303 18.1286ZM6.76232 21.1861C6.51668 21.3748 6.49161 21.7498 6.70714 22.0099L6.85286 22.1856L13.0519 22.2041C19.7124 22.2239 19.5124 22.2347 19.7386 21.8412C19.8806 21.5941 19.7498 21.2401 19.4708 21.1159C19.3354 21.0556 17.5379 21.0318 13.1225 21.0318C7.00666 21.0318 6.96169 21.0329 6.76232 21.1861ZM23.2818 21.2061C23.0191 21.4268 23.0014 21.7877 23.2417 22.0223C23.3981 22.175 23.479 22.1856 24.4806 22.1856C25.5147 22.1856 25.5572 22.1795 25.6977 22.0099C25.9133 21.7498 25.8882 21.3747 25.6426 21.1861C25.4632 21.0482 25.3378 21.0318 24.4655 21.0318C23.5517 21.0318 23.4761 21.0429 23.2818 21.2061ZM6.76232 24.0893C6.51066 24.2826 6.48696 24.681 6.71392 24.9027C6.86391 25.0492 6.96794 25.0516 13.1865 25.0516H19.5067L19.6646 24.8554C19.8742 24.5953 19.8641 24.341 19.6355 24.1177L19.4484 23.935H13.2057C7.00567 23.935 6.96177 23.936 6.76232 24.0893ZM23.3217 24.0304C23.1248 24.1781 23.0164 24.4398 23.0685 24.6424C23.1598 24.9981 23.3457 25.0516 24.4885 25.0516C25.4369 25.0516 25.5533 25.0371 25.691 24.9027C25.9179 24.681 25.8942 24.2826 25.6426 24.0893C25.4622 23.9507 25.3401 23.9352 24.4422 23.9374C23.7769 23.9389 23.4022 23.97 23.3217 24.0304ZM6.71392 26.987C6.50167 27.1944 6.51333 27.5868 6.73785 27.7929L6.91429 27.9548H13.1814H19.4484L19.6355 27.772C19.7383 27.6715 19.8226 27.5026 19.8226 27.3965C19.8226 27.2904 19.7383 27.1214 19.6355 27.0209L19.4484 26.8382H13.1573C6.96794 26.8382 6.86391 26.8405 6.71392 26.987ZM23.3458 26.888C23.2925 26.909 23.1955 27.0269 23.1302 27.1503C23.0323 27.3351 23.0278 27.4129 23.1041 27.5931C23.1551 27.7132 23.2585 27.8438 23.3338 27.8832C23.4091 27.9225 23.9301 27.9548 24.4914 27.9548C25.4596 27.9548 25.5205 27.9459 25.6777 27.7825C25.8957 27.5559 25.8951 27.1888 25.6765 26.99C25.525 26.852 25.4157 26.8387 24.4762 26.844C23.9078 26.8472 23.3991 26.867 23.3458 26.888ZM6.71392 29.8902C6.48696 30.1119 6.51066 30.5103 6.76232 30.7037C6.96177 30.8569 7.00567 30.858 13.2057 30.858H19.4484L19.6355 30.6752C19.8641 30.452 19.8742 30.1977 19.6646 29.9375L19.5067 29.7414H13.1865C6.96794 29.7414 6.86391 29.7437 6.71392 29.8902Z" fill="black"/>
</svg>
