<svg width="211" height="57" viewBox="0 0 211 57" fill="none" xmlns="http://www.w3.org/2000/svg">
<g id="Group 1">
<path id="Rectangle 35" d="M55.8178 56.0239L45.3699 41.9137L54.2264 29.8642L60.9117 38.9161C62.932 41.6517 62.9472 46.1232 60.9457 48.9027L55.8178 56.0239Z" fill="white"/>
<path id="Rectangle 36" d="M43.3567 39.0312L34.2401 26.8357L43.1843 14.914L52.2134 27.1878L43.3567 39.0312Z" fill="#4F59CC"/>
<path id="Rectangle 62" d="M32.3911 53.8007L23.2745 41.6052L32.1313 29.7626L41.2479 41.9573L32.3911 53.8007Z" fill="#4F59CC"/>
<path id="Rectangle 38" d="M8.71948 56.0059L3.61462 48.9278C1.61838 46.1599 1.64137 41.6891 3.66597 38.9419L23.5219 11.9994C28.4059 5.37236 36.269 5.4128 41.0846 12.0898V12.0898L8.71948 56.0059Z" fill="#CDCDE8"/>
<g id="Assembly Industries">
<path d="M82.2388 28.6V25.3852H90.868V28.6H82.2388ZM87.9577 9.00677L82.0358 33.033H78.2119L84.1339 9.00677H87.9577ZM88.0254 9.00677L93.9135 33.033H90.0896L84.2015 9.00677H88.0254Z" fill="white"/>
<path d="M105.923 27.4832C105.923 26.6936 105.686 26.0056 105.212 25.419C104.738 24.8099 104.118 24.2346 103.351 23.6932C102.606 23.1518 101.805 22.6103 100.948 22.0689C100.091 21.5049 99.2788 20.8845 98.5118 20.2077C97.7673 19.5084 97.1469 18.6962 96.6506 17.7712C96.1768 16.8463 95.9399 15.7634 95.9399 14.5226H99.8654C99.8654 15.2897 100.102 15.9777 100.576 16.5869C101.072 17.196 101.693 17.7712 102.437 18.3127C103.204 18.8541 104.016 19.4068 104.874 19.9708C105.731 20.5123 106.532 21.1327 107.276 21.832C108.043 22.5088 108.664 23.3097 109.137 24.2346C109.611 25.137 109.848 26.2199 109.848 27.4832H105.923ZM95.9399 14.5565C95.9399 13.3382 96.2445 12.2779 96.8536 11.3755C97.4627 10.4506 98.2974 9.73996 99.3578 9.24365C100.441 8.72477 101.67 8.46533 103.046 8.46533V11.6801C102.054 11.6801 101.275 11.9395 100.711 12.4584C100.147 12.9547 99.8654 13.6541 99.8654 14.5565H95.9399ZM109.848 27.4494C109.848 28.6902 109.544 29.7618 108.934 30.6642C108.325 31.5666 107.491 32.2772 106.43 32.7961C105.37 33.2924 104.14 33.5405 102.742 33.5405V30.3596C103.734 30.3596 104.513 30.1002 105.077 29.5813C105.641 29.0624 105.923 28.3518 105.923 27.4494H109.848ZM105.923 14.5226C105.81 13.5751 105.483 12.8645 104.941 12.3907C104.422 11.917 103.791 11.6801 103.046 11.6801V8.46533C104.197 8.46533 105.223 8.69093 106.126 9.14213C107.028 9.59332 107.761 10.225 108.325 11.0371C108.912 11.8267 109.284 12.763 109.442 13.8458L105.923 14.5226ZM99.0194 25.9943C99.1322 27.3479 99.5157 28.4195 100.17 29.2091C100.824 29.9761 101.681 30.3596 102.742 30.3596V33.5405C100.689 33.5405 99.0194 32.9314 97.7335 31.7132C96.4701 30.495 95.7144 28.803 95.4662 26.6372L99.0194 25.9943Z" fill="white"/>
<path d="M122.71 27.4832C122.71 26.6936 122.473 26.0056 122 25.419C121.526 24.8099 120.906 24.2346 120.139 23.6932C119.394 23.1518 118.593 22.6103 117.736 22.0689C116.879 21.5049 116.066 20.8845 115.299 20.2077C114.555 19.5084 113.935 18.6962 113.438 17.7712C112.964 16.8463 112.728 15.7634 112.728 14.5226H116.653C116.653 15.2897 116.89 15.9777 117.364 16.5869C117.86 17.196 118.48 17.7712 119.225 18.3127C119.992 18.8541 120.804 19.4068 121.661 19.9708C122.519 20.5123 123.319 21.1327 124.064 21.832C124.831 22.5088 125.451 23.3097 125.925 24.2346C126.399 25.137 126.636 26.2199 126.636 27.4832H122.71ZM112.728 14.5565C112.728 13.3382 113.032 12.2779 113.641 11.3755C114.25 10.4506 115.085 9.73996 116.145 9.24365C117.228 8.72477 118.458 8.46533 119.834 8.46533V11.6801C118.841 11.6801 118.063 11.9395 117.499 12.4584C116.935 12.9547 116.653 13.6541 116.653 14.5565H112.728ZM126.636 27.4494C126.636 28.6902 126.331 29.7618 125.722 30.6642C125.113 31.5666 124.278 32.2772 123.218 32.7961C122.158 33.2924 120.928 33.5405 119.529 33.5405V30.3596C120.522 30.3596 121.3 30.1002 121.864 29.5813C122.428 29.0624 122.71 28.3518 122.71 27.4494H126.636ZM122.71 14.5226C122.598 13.5751 122.27 12.8645 121.729 12.3907C121.21 11.917 120.578 11.6801 119.834 11.6801V8.46533C120.984 8.46533 122.011 8.69093 122.913 9.14213C123.816 9.59332 124.549 10.225 125.113 11.0371C125.699 11.8267 126.072 12.763 126.23 13.8458L122.71 14.5226ZM115.807 25.9943C115.92 27.3479 116.303 28.4195 116.958 29.2091C117.612 29.9761 118.469 30.3596 119.529 30.3596V33.5405C117.476 33.5405 115.807 32.9314 114.521 31.7132C113.258 30.495 112.502 28.803 112.254 26.6372L115.807 25.9943Z" fill="white"/>
<path d="M132.625 33.033V29.8182H141.727V33.033H132.625ZM132.963 22.678V19.4294H139.697V22.678H132.963ZM130.053 9.00677H133.978V33.033H130.053V9.00677ZM132.963 9.00677H141.389V12.1877H132.963V9.00677Z" fill="white"/>
<path d="M152.736 33.033L158.049 9.00677H161.196L155.883 33.033H152.736ZM152.634 33.033L147.322 9.00677H150.469L155.781 33.033H152.634ZM145.122 33.033V9.00677H149.047V33.033H145.122ZM159.47 33.033V9.00677H163.395V33.033H159.47Z" fill="white"/>
<path d="M173.379 21.832V19.091C174.372 19.091 175.15 18.7864 175.714 18.1773C176.278 17.5457 176.56 16.6771 176.56 15.5717H180.486C180.486 16.7448 180.17 17.8051 179.538 18.7526C178.929 19.7001 178.083 20.4559 177 21.0199C175.94 21.5613 174.733 21.832 173.379 21.832ZM170.875 33.033V29.8182H173.752V33.033H170.875ZM170.875 22.1704V19.091H173.718V22.1704H170.875ZM176.899 26.4681V25.6897H180.824V26.4681H176.899ZM176.899 25.7236C176.899 24.5956 176.617 23.727 176.053 23.1179C175.489 22.4862 174.71 22.1704 173.718 22.1704V19.4294C175.071 19.4294 176.278 19.7114 177.339 20.2754C178.422 20.8168 179.268 21.5613 179.877 22.5088C180.508 23.4563 180.824 24.5279 180.824 25.7236H176.899ZM170.875 12.1877V9.00677H173.413V12.1877H170.875ZM180.486 15.6055H176.56C176.56 14.5226 176.278 13.6879 175.714 13.1014C175.15 12.4923 174.372 12.1877 173.379 12.1877V9.00677C174.778 9.00677 176.008 9.28876 177.068 9.85276C178.128 10.4168 178.963 11.1951 179.572 12.1877C180.181 13.1803 180.486 14.3196 180.486 15.6055ZM180.824 26.4342C180.824 27.7201 180.52 28.8594 179.911 29.852C179.301 30.8447 178.467 31.623 177.406 32.187C176.346 32.751 175.117 33.033 173.718 33.033V29.8182C174.71 29.8182 175.489 29.5249 176.053 28.9383C176.617 28.3292 176.899 27.4945 176.899 26.4342H180.824ZM167.627 33.033V9.00677H171.552V33.033H167.627Z" fill="white"/>
<path d="M187.292 33.033V29.8182H195.718V33.033H187.292ZM184.381 33.033V9.00677H188.307V33.033H184.381Z" fill="white"/>
<path d="M201.343 24.6407L206.926 9.00677H210.48L204.896 24.6407H201.343ZM201.309 33.033V24.6407H204.896V33.033H201.309ZM201.309 24.6407L195.726 9.00677H199.82L204.896 24.6407H201.309Z" fill="white"/>
</g>
<g id="Assembly Industries_2">
<path d="M78.8262 54.0328V37.7474H80.3616V54.0328H78.8262Z" fill="#CDCDE8"/>
<path d="M94.898 54.0328L88.3606 37.7474H90.0356L96.5498 54.0328H94.898ZM88.0348 54.0328V37.7474H89.5703V54.0328H88.0348ZM95.34 54.0328V37.7474H96.8755V54.0328H95.34Z" fill="#CDCDE8"/>
<path d="M110.457 49.8451V41.9351H111.992V49.8451H110.457ZM105.152 54.0328V52.5671H107.688V54.0328H105.152ZM105.152 39.2131V37.7474H107.688V39.2131H105.152ZM105.152 39.2131V37.7474H107.688V39.2131H105.152ZM111.992 41.9351H110.457C110.457 41.0665 110.208 40.3996 109.712 39.9343C109.231 39.4535 108.557 39.2131 107.688 39.2131V37.7474C108.557 37.7474 109.309 37.9258 109.945 38.2825C110.596 38.6237 111.1 39.1123 111.457 39.7482C111.814 40.3686 111.992 41.0975 111.992 41.9351ZM111.992 49.8451C111.992 50.6826 111.814 51.4194 111.457 52.0553C111.1 52.6757 110.596 53.1642 109.945 53.5209C109.309 53.8622 108.557 54.0328 107.688 54.0328V52.5671C108.557 52.5671 109.231 52.3267 109.712 51.8459C110.208 51.3651 110.457 50.6981 110.457 49.8451H111.992ZM104.315 54.0328V37.7474H105.85V54.0328H104.315Z" fill="#CDCDE8"/>
<path d="M126.121 50.2173V37.7474H127.657V50.2173H126.121ZM119.095 50.2173V37.7474H120.631V50.2173H119.095ZM127.657 50.1941C127.657 51.0316 127.478 51.7683 127.122 52.4042C126.765 53.0246 126.261 53.5132 125.609 53.8699C124.973 54.2111 124.221 54.3817 123.353 54.3817V52.9161C124.221 52.9161 124.896 52.6757 125.377 52.1948C125.873 51.714 126.121 51.0471 126.121 50.1941H127.657ZM119.095 50.1941H120.631C120.631 51.0471 120.871 51.714 121.352 52.1948C121.848 52.6757 122.531 52.9161 123.399 52.9161V54.3817C122.546 54.3817 121.794 54.2111 121.142 53.8699C120.491 53.5132 119.987 53.0246 119.63 52.4042C119.274 51.7683 119.095 51.0316 119.095 50.1941Z" fill="#CDCDE8"/>
<path d="M141.506 50.4733C141.506 49.8839 141.343 49.3565 141.017 48.8912C140.707 48.4259 140.296 47.9839 139.784 47.5652C139.288 47.1464 138.753 46.7276 138.179 46.3089C137.605 45.8901 137.062 45.4403 136.55 44.9595C136.054 44.4787 135.643 43.9436 135.317 43.3542C135.007 42.7493 134.852 42.0669 134.852 41.3069H136.387C136.387 41.8808 136.543 42.4081 136.853 42.8889C137.178 43.3542 137.589 43.7963 138.086 44.215C138.598 44.6338 139.14 45.0526 139.714 45.4713C140.288 45.8901 140.823 46.3399 141.32 46.8207C141.831 47.3015 142.242 47.8366 142.553 48.4259C142.878 49.0153 143.041 49.6978 143.041 50.4733H141.506ZM134.852 41.3535C134.852 40.5159 135.03 39.8025 135.387 39.2131C135.744 38.6237 136.248 38.1739 136.899 37.8637C137.551 37.5535 138.303 37.3984 139.156 37.3984V38.8641C138.287 38.8641 137.605 39.089 137.109 39.5388C136.628 39.9731 136.387 40.578 136.387 41.3535H134.852ZM143.041 50.4267C143.041 51.2643 142.863 51.9777 142.506 52.5671C142.149 53.1565 141.645 53.6062 140.994 53.9164C140.358 54.2266 139.606 54.3817 138.737 54.3817V52.9161C139.606 52.9161 140.28 52.6989 140.761 52.2646C141.258 51.8149 141.506 51.2022 141.506 50.4267H143.041ZM141.599 40.958C141.521 40.229 141.25 39.7017 140.784 39.3759C140.319 39.0347 139.776 38.8641 139.156 38.8641V37.3984C139.838 37.3984 140.459 37.5458 141.017 37.8405C141.591 38.1196 142.056 38.4996 142.413 38.9804C142.785 39.4612 143.01 40.0118 143.088 40.6322L141.599 40.958ZM135.713 49.6822C135.821 50.6904 136.139 51.4814 136.667 52.0553C137.194 52.6291 137.884 52.9161 138.737 52.9161V54.3817C137.512 54.3817 136.504 53.994 135.713 53.2185C134.937 52.443 134.464 51.3651 134.294 49.9847L135.713 49.6822Z" fill="#CDCDE8"/>
<path d="M148.793 39.2131V37.7474H157.866V39.2131H148.793ZM152.562 54.0328V37.7474H154.098V54.0328H152.562Z" fill="#CDCDE8"/>
<path d="M170.19 54.0328L167.188 45.9366H168.817L171.818 54.0328H170.19ZM164.746 46.7974V45.3317H167.537V46.7974H164.746ZM164.746 39.2131V37.7474H167.537V39.2131H164.746ZM170.283 42.633V41.9118H171.818V42.633H170.283ZM171.818 41.9351H170.283C170.283 41.0665 170.034 40.3996 169.538 39.9343C169.057 39.4535 168.383 39.2131 167.514 39.2131V37.7474C168.383 37.7474 169.135 37.9258 169.771 38.2825C170.422 38.6237 170.926 39.1123 171.283 39.7482C171.64 40.3686 171.818 41.0975 171.818 41.9351ZM171.818 42.6098C171.818 43.4473 171.64 44.184 171.283 44.8199C170.926 45.4403 170.422 45.9289 169.771 46.2856C169.135 46.6268 168.383 46.7974 167.514 46.7974V45.3317C168.383 45.3317 169.057 45.0913 169.538 44.6105C170.034 44.1297 170.283 43.4628 170.283 42.6098H171.818ZM164.141 54.0328V37.7474H165.676V54.0328H164.141Z" fill="#CDCDE8"/>
<path d="M178.79 54.0328V37.7474H180.326V54.0328H178.79Z" fill="#CDCDE8"/>
<path d="M188.604 54.0328V52.5671H195.211V54.0328H188.604ZM189.069 46.7044V45.1689H193.815V46.7044H189.069ZM187.999 37.7474H189.534V54.0328H187.999V37.7474ZM188.836 37.7474H194.978V39.2131H188.836V37.7474Z" fill="#CDCDE8"/>
<path d="M208.592 50.4733C208.592 49.8839 208.429 49.3565 208.103 48.8912C207.793 48.4259 207.382 47.9839 206.87 47.5652C206.374 47.1464 205.839 46.7276 205.265 46.3089C204.691 45.8901 204.148 45.4403 203.637 44.9595C203.14 44.4787 202.729 43.9436 202.403 43.3542C202.093 42.7493 201.938 42.0669 201.938 41.3069H203.474C203.474 41.8808 203.629 42.4081 203.939 42.8889C204.265 43.3542 204.676 43.7963 205.172 44.215C205.684 44.6338 206.227 45.0526 206.801 45.4713C207.374 45.8901 207.909 46.3399 208.406 46.8207C208.918 47.3015 209.329 47.8366 209.639 48.4259C209.965 49.0153 210.127 49.6978 210.127 50.4733H208.592ZM201.938 41.3535C201.938 40.5159 202.117 39.8025 202.473 39.2131C202.83 38.6237 203.334 38.1739 203.985 37.8637C204.637 37.5535 205.389 37.3984 206.242 37.3984V38.8641C205.374 38.8641 204.691 39.089 204.195 39.5388C203.714 39.9731 203.474 40.578 203.474 41.3535H201.938ZM210.127 50.4267C210.127 51.2643 209.949 51.9777 209.592 52.5671C209.236 53.1565 208.732 53.6062 208.08 53.9164C207.444 54.2266 206.692 54.3817 205.823 54.3817V52.9161C206.692 52.9161 207.367 52.6989 207.847 52.2646C208.344 51.8149 208.592 51.2022 208.592 50.4267H210.127ZM208.685 40.958C208.607 40.229 208.336 39.7017 207.871 39.3759C207.405 39.0347 206.863 38.8641 206.242 38.8641V37.3984C206.925 37.3984 207.545 37.5458 208.103 37.8405C208.677 38.1196 209.143 38.4996 209.499 38.9804C209.871 39.4612 210.096 40.0118 210.174 40.6322L208.685 40.958ZM202.799 49.6822C202.908 50.6904 203.226 51.4814 203.753 52.0553C204.28 52.6291 204.97 52.9161 205.823 52.9161V54.3817C204.598 54.3817 203.59 53.994 202.799 53.2185C202.023 52.443 201.55 51.3651 201.38 49.9847L202.799 49.6822Z" fill="#CDCDE8"/>
</g>
</g>
</svg>
